<?xml version="1.0" encoding="UTF-8"?>
<svg width="800" height="500" viewBox="0 0 800 500" xmlns="http://www.w3.org/2000/svg">
  <text x="400" y="25" text-anchor="middle" font-family="Arial" font-size="16" font-weight="bold" fill="#2c5aa0">Technical Reference Diagrams Index</text>
  
  <!-- Row 1 -->
  <rect x="50" y="60" width="200" height="80" fill="#e3f2fd" stroke="#2196f3" stroke-width="2" rx="5"/>
  <rect x="130" y="75" width="40" height="20" fill="#2196f3" rx="3"/>
  <text x="150" y="87" text-anchor="middle" font-family="Arial" font-size="8" fill="white" font-weight="bold">ARCH</text>
  <text x="150" y="105" text-anchor="middle" font-family="Arial" font-size="11" font-weight="bold" fill="#2c5aa0">Solution Landscape</text>
  <text x="150" y="120" text-anchor="middle" font-family="Arial" font-size="9" fill="#495057">SmartAPI, BlueInvoice, Connectors</text>
  
  <rect x="300" y="60" width="200" height="80" fill="#fff3cd" stroke="#ffc107" stroke-width="2" rx="5"/>
  <rect x="380" y="75" width="40" height="20" fill="#ffc107" rx="3"/>
  <text x="400" y="87" text-anchor="middle" font-family="Arial" font-size="8" fill="white" font-weight="bold">SEC</text>
  <text x="400" y="105" text-anchor="middle" font-family="Arial" font-size="11" font-weight="bold" fill="#2c5aa0">Security Architecture</text>
  <text x="400" y="120" text-anchor="middle" font-family="Arial" font-size="9" fill="#495057">Encryption, PKI, Monitoring</text>
  
  <rect x="550" y="60" width="200" height="80" fill="#d4edda" stroke="#28a745" stroke-width="2" rx="5"/>
  <rect x="630" y="75" width="40" height="20" fill="#28a745" rx="3"/>
  <text x="650" y="87" text-anchor="middle" font-family="Arial" font-size="8" fill="white" font-weight="bold">DATA</text>
  <text x="650" y="105" text-anchor="middle" font-family="Arial" font-size="11" font-weight="bold" fill="#2c5aa0">Data Mapping Flow</text>
  <text x="650" y="120" text-anchor="middle" font-family="Arial" font-size="9" fill="#495057">Canonical schema mapping</text>
  
  <!-- Row 2 -->
  <rect x="50" y="160" width="200" height="80" fill="#f8d7da" stroke="#dc3545" stroke-width="2" rx="5"/>
  <rect x="130" y="175" width="40" height="20" fill="#dc3545" rx="3"/>
  <text x="150" y="187" text-anchor="middle" font-family="Arial" font-size="8" fill="white" font-weight="bold">RISK</text>
  <text x="150" y="205" text-anchor="middle" font-family="Arial" font-size="11" font-weight="bold" fill="#2c5aa0">Risk Heat Map</text>
  <text x="150" y="220" text-anchor="middle" font-family="Arial" font-size="9" fill="#495057">Likelihood vs Impact</text>
  
  <rect x="300" y="160" width="200" height="80" fill="#e8f5e8" stroke="#28a745" stroke-width="2" rx="5"/>
  <rect x="380" y="175" width="40" height="20" fill="#28a745" rx="3"/>
  <text x="400" y="187" text-anchor="middle" font-family="Arial" font-size="8" fill="white" font-weight="bold">OPS</text>
  <text x="400" y="205" text-anchor="middle" font-family="Arial" font-size="11" font-weight="bold" fill="#2c5aa0">Operations Cycle</text>
  <text x="400" y="220" text-anchor="middle" font-family="Arial" font-size="9" fill="#495057">Monitor, Detect, Resolve</text>
  
  <rect x="550" y="160" width="200" height="80" fill="#f0f8ff" stroke="#17a2b8" stroke-width="2" rx="5"/>
  <rect x="630" y="175" width="40" height="20" fill="#17a2b8" rx="3"/>
  <text x="650" y="187" text-anchor="middle" font-family="Arial" font-size="8" fill="white" font-weight="bold">IMPL</text>
  <text x="650" y="205" text-anchor="middle" font-family="Arial" font-size="11" font-weight="bold" fill="#2c5aa0">Cutover Timeline</text>
  <text x="650" y="220" text-anchor="middle" font-family="Arial" font-size="9" fill="#495057">Controlled go-live process</text>
  
  <!-- Row 3 -->
  <rect x="50" y="260" width="200" height="80" fill="#f8f9fa" stroke="#6c757d" stroke-width="2" rx="5"/>
  <rect x="130" y="275" width="40" height="20" fill="#6c757d" rx="3"/>
  <text x="150" y="287" text-anchor="middle" font-family="Arial" font-size="8" fill="white" font-weight="bold">COMP</text>
  <text x="150" y="305" text-anchor="middle" font-family="Arial" font-size="11" font-weight="bold" fill="#2c5aa0">Compliance Lifecycle</text>
  <text x="150" y="320" text-anchor="middle" font-family="Arial" font-size="9" fill="#495057">Submit, Clear, Archive, Audit</text>
  
  <rect x="300" y="260" width="200" height="80" fill="#e3f2fd" stroke="#2196f3" stroke-width="2" rx="5"/>
  <rect x="380" y="275" width="40" height="20" fill="#2196f3" rx="3"/>
  <text x="400" y="287" text-anchor="middle" font-family="Arial" font-size="8" fill="white" font-weight="bold">INTEG</text>
  <text x="400" y="305" text-anchor="middle" font-family="Arial" font-size="11" font-weight="bold" fill="#2c5aa0">Integration Decision Tree</text>
  <text x="400" y="320" text-anchor="middle" font-family="Arial" font-size="9" fill="#495057">ERP maturity paths</text>
  
  <rect x="550" y="260" width="200" height="80" fill="#d4edda" stroke="#28a745" stroke-width="2" rx="5"/>
  <rect x="630" y="275" width="40" height="20" fill="#28a745" rx="3"/>
  <text x="650" y="287" text-anchor="middle" font-family="Arial" font-size="8" fill="white" font-weight="bold">GLOBAL</text>
  <text x="650" y="305" text-anchor="middle" font-family="Arial" font-size="11" font-weight="bold" fill="#2c5aa0">Global Footprint</text>
  <text x="650" y="320" text-anchor="middle" font-family="Arial" font-size="9" fill="#495057">8+ countries deployed</text>
  
  <!-- Additional Technical References -->
  <rect x="125" y="360" width="150" height="40" fill="#fff3cd" stroke="#ffc107" stroke-width="1" rx="3"/>
  <text x="200" y="380" text-anchor="middle" font-family="Arial" font-size="10" font-weight="bold" fill="#2c5aa0">API Documentation</text>
  <text x="200" y="392" text-anchor="middle" font-family="Arial" font-size="8" fill="#495057">Endpoints and payloads</text>
  
  <rect x="325" y="360" width="150" height="40" fill="#f8d7da" stroke="#dc3545" stroke-width="1" rx="3"/>
  <text x="400" y="380" text-anchor="middle" font-family="Arial" font-size="10" font-weight="bold" fill="#2c5aa0">Evidence Bundles</text>
  <text x="400" y="392" text-anchor="middle" font-family="Arial" font-size="8" fill="#495057">Compliance structure</text>
  
  <rect x="525" y="360" width="150" height="40" fill="#e8f5e8" stroke="#28a745" stroke-width="1" rx="3"/>
  <text x="600" y="380" text-anchor="middle" font-family="Arial" font-size="10" font-weight="bold" fill="#2c5aa0">Contact Matrix</text>
  <text x="600" y="392" text-anchor="middle" font-family="Arial" font-size="8" fill="#495057">Support escalation</text>
  
  <!-- Summary -->
  <rect x="150" y="430" width="500" height="30" fill="#e8f5e8" stroke="#28a745" stroke-width="2" rx="5"/>
  <text x="400" y="450" text-anchor="middle" font-family="Arial" font-size="12" font-weight="bold" fill="#28a745">Technical depth and audit assurance for evaluation teams</text>
</svg>