<?xml version="1.0" encoding="UTF-8"?>
<svg width="700" height="300" viewBox="0 0 700 300" xmlns="http://www.w3.org/2000/svg">
  <text x="350" y="20" text-anchor="middle" font-family="Arial" font-size="16" font-weight="bold" fill="#2c5aa0">Requirements Coverage Matrix</text>
  
  <rect x="50" y="40" width="600" height="25" fill="#2c5aa0"/>
  <text x="60" y="55" font-family="Arial" font-size="12" fill="white">Requirement</text>
  <text x="300" y="55" font-family="Arial" font-size="12" fill="white">Section</text>
  <text x="450" y="55" font-family="Arial" font-size="12" fill="white">Status</text>
  <text x="550" y="55" font-family="Arial" font-size="12" fill="white">Notes</text>
  
  <rect x="50" y="65" width="600" height="20" fill="#f8f9fa"/>
  <text x="60" y="78" font-family="Arial" font-size="10" fill="#000">Company Profile</text>
  <text x="310" y="78" font-family="Arial" font-size="10" fill="#000">1, 18</text>
  <text x="460" y="78" font-family="Arial" font-size="10" fill="#28a745">✓</text>
  <text x="560" y="78" font-family="Arial" font-size="9" fill="#000">Global footprint</text>
  
  <rect x="50" y="85" width="600" height="20" fill="#ffffff"/>
  <text x="60" y="98" font-family="Arial" font-size="10" fill="#000">Project Team</text>
  <text x="310" y="98" font-family="Arial" font-size="10" fill="#000">10, 11</text>
  <text x="460" y="98" font-family="Arial" font-size="10" fill="#28a745">✓</text>
  <text x="560" y="98" font-family="Arial" font-size="9" fill="#000">Dedicated roles</text>
  
  <rect x="50" y="105" width="600" height="20" fill="#f8f9fa"/>
  <text x="60" y="118" font-family="Arial" font-size="10" fill="#000">Integration Architecture</text>
  <text x="310" y="118" font-family="Arial" font-size="10" fill="#000">7, 8</text>
  <text x="460" y="118" font-family="Arial" font-size="10" fill="#28a745">✓</text>
  <text x="560" y="118" font-family="Arial" font-size="9" fill="#000">Multi-channel</text>
  
  <rect x="50" y="125" width="600" height="20" fill="#ffffff"/>
  <text x="60" y="138" font-family="Arial" font-size="10" fill="#000">Risk Management</text>
  <text x="310" y="138" font-family="Arial" font-size="10" fill="#000">15</text>
  <text x="460" y="138" font-family="Arial" font-size="10" fill="#28a745">✓</text>
  <text x="560" y="138" font-family="Arial" font-size="9" fill="#000">Heat maps</text>
  
  <rect x="50" y="145" width="600" height="20" fill="#f8f9fa"/>
  <text x="60" y="158" font-family="Arial" font-size="10" fill="#000">Security Framework</text>
  <text x="310" y="158" font-family="Arial" font-size="10" fill="#000">5</text>
  <text x="460" y="158" font-family="Arial" font-size="10" fill="#28a745">✓</text>
  <text x="560" y="158" font-family="Arial" font-size="9" fill="#000">TLS 1.3, PKI</text>
  
  <rect x="50" y="165" width="600" height="20" fill="#ffffff"/>
  <text x="60" y="178" font-family="Arial" font-size="10" fill="#000">ERP Integration</text>
  <text x="310" y="178" font-family="Arial" font-size="10" fill="#000">7</text>
  <text x="460" y="178" font-family="Arial" font-size="10" fill="#28a745">✓</text>
  <text x="560" y="178" font-family="Arial" font-size="9" fill="#000">SAP, Oracle</text>
  
  <rect x="50" y="185" width="600" height="20" fill="#f8f9fa"/>
  <text x="60" y="198" font-family="Arial" font-size="10" fill="#000">Case Studies</text>
  <text x="310" y="198" font-family="Arial" font-size="10" fill="#000">18</text>
  <text x="460" y="198" font-family="Arial" font-size="10" fill="#28a745">✓</text>
  <text x="560" y="198" font-family="Arial" font-size="9" fill="#000">8+ countries</text>
  
  <text x="350" y="230" text-anchor="middle" font-family="Arial" font-size="12" fill="#666">... Additional requirements mapped ...</text>
  
  <rect x="150" y="250" width="400" height="30" fill="#e8f5e8" stroke="#28a745" stroke-width="2"/>
  <text x="350" y="270" text-anchor="middle" font-family="Arial" font-size="14" font-weight="bold" fill="#28a745">ALL REQUIREMENTS FULLY COVERED</text>
</svg>