<?xml version="1.0" encoding="UTF-8"?>
<svg width="800" height="500" viewBox="0 0 800 500" xmlns="http://www.w3.org/2000/svg">
  <title>End-to-End Security Architecture</title>

  <text x="400" y="25" text-anchor="middle" font-family="Arial" font-size="16" font-weight="bold" fill="#2c5aa0">
    End-to-End Security Architecture
  </text>
  
  <!-- Client Layer -->
  <rect x="50" y="60" width="120" height="80" fill="#e3f2fd" stroke="#2196f3" stroke-width="2" rx="5"/>
  <text x="110" y="80" text-anchor="middle" font-family="Arial" font-size="11" font-weight="bold" fill="#2c5aa0">Client Systems</text>
  <text x="110" y="95" text-anchor="middle" font-family="Arial" font-size="9" fill="#495057">ERP Systems</text>
  <text x="110" y="108" text-anchor="middle" font-family="Arial" font-size="9" fill="#495057">Legacy Apps</text>
  <!-- TLS Badge -->
  <g transform="translate(85,117)">
    <rect x="-22" y="-10" width="44" height="16" rx="8" fill="#1e88e5"/>
    <text x="0" y="2" text-anchor="middle" font-family="Arial" font-size="8" fill="white" font-weight="bold">TLS 1.3</text>
  </g>
  
  <!-- Arrow -->
  <path d="M 170 100 L 220 100" stroke="#28a745" stroke-width="3" fill="none"/>
  <path d="M 215 95 L 220 100 L 215 105" stroke="#28a745" stroke-width="3" fill="none"/>
  
  <!-- SmartAPI Layer -->
  <rect x="230" y="60" width="140" height="80" fill="#d4edda" stroke="#28a745" stroke-width="2" rx="5"/>
  <text x="300" y="80" text-anchor="middle" font-family="Arial" font-size="11" font-weight="bold" fill="#2c5aa0">SmartAPI Core</text>
  <text x="300" y="95" text-anchor="middle" font-family="Arial" font-size="9" fill="#495057">Digital Signing</text>
  <text x="300" y="108" text-anchor="middle" font-family="Arial" font-size="9" fill="#495057">Validation</text>
  <!-- PKI/HSM Badge -->
  <g transform="translate(300,123)">
    <rect x="-27" y="-10" width="54" height="16" rx="8" fill="#2e7d32"/>
    <text x="0" y="2" text-anchor="middle" font-family="Arial" font-size="8" fill="white" font-weight="bold">PKI/HSM</text>
  </g>
  
  <!-- Arrow -->
  <path d="M 370 100 L 420 100" stroke="#28a745" stroke-width="3" fill="none"/>
  <path d="M 415 95 L 420 100 L 415 105" stroke="#28a745" stroke-width="3" fill="none"/>
  
  <!-- FIRS Layer -->
  <rect x="430" y="60" width="120" height="80" fill="#f8d7da" stroke="#dc3545" stroke-width="2" rx="5"/>
  <text x="490" y="80" text-anchor="middle" font-family="Arial" font-size="11" font-weight="bold" fill="#2c5aa0">FIRS MBS</text>
  <text x="490" y="95" text-anchor="middle" font-family="Arial" font-size="9" fill="#495057">Tax Authority</text>
  <text x="490" y="108" text-anchor="middle" font-family="Arial" font-size="9" fill="#495057">Clearance</text>
  <!-- mTLS Badge -->
  <g transform="translate(490,123)">
    <rect x="-18" y="-10" width="36" height="16" rx="8" fill="#c62828"/>
    <text x="0" y="2" text-anchor="middle" font-family="Arial" font-size="8" fill="white" font-weight="bold">mTLS</text>
  </g>
  
  <!-- Arrow down -->
  <path d="M 300 140 L 300 180" stroke="#7b1fa2" stroke-width="3" fill="none"/>
  <path d="M 295 175 L 300 180 L 305 175" stroke="#7b1fa2" stroke-width="3" fill="none"/>
  
  <!-- Archive Layer -->
  <rect x="200" y="190" width="200" height="60" fill="#f3e5f5" stroke="#7b1fa2" stroke-width="2" rx="5"/>
  <text x="300" y="210" text-anchor="middle" font-family="Arial" font-size="11" font-weight="bold" fill="#2c5aa0">Immutable Archive</text>
  <text x="300" y="225" text-anchor="middle" font-family="Arial" font-size="9" fill="#495057">WORM Storage</text>
  <!-- AES Badge -->
  <g transform="translate(300,238)">
    <rect x="-24" y="-10" width="48" height="16" rx="8" fill="#6a1b9a"/>
    <text x="0" y="2" text-anchor="middle" font-family="Arial" font-size="8" fill="white" font-weight="bold">AES-256</text>
  </g>
  
  <!-- Security Monitoring -->
  <rect x="100" y="290" width="500" height="50" fill="#e1f5fe" stroke="#0288d1" stroke-width="2" rx="5"/>
  <text x="350" y="310" text-anchor="middle" font-family="Arial" font-size="12" font-weight="bold" fill="#2c5aa0">Security Monitoring &amp; SIEM</text>
  <text x="350" y="325" text-anchor="middle" font-family="Arial" font-size="10" fill="#495057">24/7 Threat Detection and Response</text>
  
  <!-- Compliance -->
  <rect x="150" y="370" width="400" height="40" fill="#f1f8e9" stroke="#689f38" stroke-width="2" rx="5"/>
  <text x="350" y="385" text-anchor="middle" font-family="Arial" font-size="11" font-weight="bold" fill="#2c5aa0">Compliance Standards</text>
  <text x="350" y="400" text-anchor="middle" font-family="Arial" font-size="9" fill="#495057">ISO 27001 | SOC 2 | NIST | FIPS 140-2</text>
  
  <!-- Security Labels -->
  <circle cx="110" cy="50" r="12" fill="#ff5722"/>
  <text x="110" y="54" text-anchor="middle" font-family="Arial" font-size="8" fill="white" font-weight="bold">SSL</text>
  
  <circle cx="300" cy="50" r="12" fill="#4caf50"/>
  <text x="300" y="54" text-anchor="middle" font-family="Arial" font-size="8" fill="white" font-weight="bold">PKI</text>
  
  <circle cx="490" cy="50" r="12" fill="#9c27b0"/>
  <text x="490" y="54" text-anchor="middle" font-family="Arial" font-size="8" fill="white" font-weight="bold">GOV</text>
  
  <!-- Defense in Depth Label -->
  <text x="400" y="460" text-anchor="middle" font-family="Arial" font-size="12" font-weight="bold" fill="#d32f2f">
    Defense in Depth: Multi-layer Security Protection
  </text>
</svg>
